<?xml version="1.0" encoding="utf-8"?>
<!-- Generator: Adobe Illustrator 23.1.1, SVG Export Plug-In . SVG Version: 6.00 Build 0)  -->
<svg version="1.1" id="Layer_1" xmlns="http://www.w3.org/2000/svg" xmlns:xlink="http://www.w3.org/1999/xlink" x="0px" y="0px"
	 viewBox="0 0 1000 262.9" style="enable-background:new 0 0 1000 262.9;" xml:space="preserve">
<style type="text/css">
	.st0{fill:#EFC300;}
</style>
<g>
	<g>
		<path class="st0" d="M252.1,133l15.8-15.8c26.2-26.2,26.2-68.8,0-95c-26.2-26.2-68.8-26.2-95,0L157.1,38l-8,7.9l-23.7-23.7
			c-26.2-26.2-68.8-26.2-95,0c-26.2,26.2-26.2,68.8,0,95l23.7,23.7L6.6,188.5C0,195,0,205.7,6.6,212.2s17.2,6.6,23.7,0l47.5-47.5
			l11.9-11.9l11.9-11.8l7.9-8l31.7-31.7l-7.9-7.9c-8.8-8.7-22.9-8.7-31.7,0l-15.8,15.8l-8,7.9l-7.9-7.9L54.1,93.4
			c-6.3-6.3-9.8-14.8-9.8-23.7c0-9,3.5-17.4,9.8-23.8c6.6-6.6,15.2-9.8,23.8-9.8c8.6,0,17.2,3.2,23.7,9.8l23.7,23.7l23.7,23.8
			l47.5,47.5l-8,7.9l-39.6,39.6l-39.6-39.6l-7.9,7.9c-8.7,8.7-8.7,22.9,0,31.7l35.6,35.6c6.6,6.6,17.2,6.6,23.8,0l51.5-51.4l7.9-8
			l23.8-23.7L252.1,133z M172.9,69.7l7.9-8l15.8-15.8c13.1-13,34.4-13,47.5,0c6.4,6.4,9.9,14.8,9.9,23.8c0,9-3.5,17.4-9.9,23.7
			l-15.8,15.8l-8,7.9L172.9,69.7z"/>
		<path class="st0" d="M291.7,188.5l-39.6-39.6l-7.9,8c-8.7,8.8-8.7,22.9,0,31.7l23.8,23.7c3.2,3.3,7.6,4.9,11.9,4.9
			c4.3,0,8.6-1.6,11.9-4.9C298.3,205.7,298.3,195,291.7,188.5z"/>
	</g>
	<g>
		<path class="st0" d="M358,17.6C358,7.9,365.6,0,375.6,0s17.9,7.9,17.9,17.6v114.2l66.4-65.3c4.7-4.7,9.1-7.6,15.2-7.6
			c9.4,0,15.5,7.6,15.5,16.1c0,5.9-2.9,10.2-7.9,14.9l-41,37.8l46.8,61.2c3.2,4.4,4.7,7.6,4.7,11.7c0,9.7-7.6,16.1-16.7,16.1
			c-7,0-11.1-2.3-15.5-7.9l-44.2-58.8l-23.4,22.2V199c0,10-7.9,17.6-17.9,17.6c-9.7,0-17.6-7.6-17.6-17.6V17.6z"/>
		<path class="st0" d="M521.6,258.5c-5.3-1.8-11.1-6.1-11.1-14.6c0-8.8,6.7-14.6,14.3-14.6c2.9,0,4.7,0.6,6.4,1.2
			c4.1,1.2,7.3,2,12.3,2c10.5,0,16.1-4.4,22-16.4l1.2-3.2L509.3,84.6c-1.2-2.6-2-6.1-2-8.5c0-10,7.6-17.3,17.6-17.3
			c9.1,0,14,5.3,17.3,13.5L583.7,175l38.6-102.7c2.9-7.3,7.9-13.5,17-13.5c9.4,0,17,7.3,17,16.7c0,2.9-0.9,6.7-1.5,8.5l-56.5,135.5
			c-13.2,31.6-27.2,43.3-52.1,43.3C536.3,262.9,529,261.4,521.6,258.5z"/>
		<path class="st0" d="M679.2,76.7c0-10,7.6-17.9,17.6-17.9c10,0,17.9,7.9,17.9,17.9v7.6c10-14.3,24.3-26.9,48.3-26.9
			c34.8,0,55,23.4,55,59.1V199c0,10-7.6,17.6-17.6,17.6c-10,0-17.9-7.6-17.9-17.6v-71.7c0-24-12-37.8-33.1-37.8
			c-20.5,0-34.8,14.3-34.8,38.3V199c0,10-7.9,17.6-17.9,17.6c-9.7,0-17.6-7.6-17.6-17.6V76.7z"/>
		<path class="st0" d="M998.3,199c0,10-7.9,17.6-17.6,17.6c-10,0-17.9-7.6-17.9-17.6v-9.7c-11.4,16.1-27.5,29-52.7,29
			c-36.3,0-71.7-29-71.7-80.2v-0.6c0-51.2,34.8-80.2,71.7-80.2c25.5,0,41.6,12.6,52.7,27.2v-67c0-10,7.9-17.6,17.6-17.6
			c10,0,17.9,7.6,17.9,17.6V199z M874.2,137.6v0.6c0,29.9,20.5,49.5,44.5,49.5c23.7,0,44.8-19.9,44.8-49.5v-0.6
			c0-29.9-21.1-49.5-44.8-49.5C894.4,88.1,874.2,106.8,874.2,137.6z"/>
	</g>
</g>
</svg>
